<svg width="36" height="36" viewBox="0 0 36 36" fill="none" xmlns="http://www.w3.org/2000/svg">
  <defs>
    <linearGradient id="bg" x1="0" y1="0" x2="36" y2="36" gradientUnits="userSpaceOnUse">
      <stop offset="0%" stop-color="#6366f1"/>
      <stop offset="100%" stop-color="#06b6d4"/>
    </linearGradient>
    <linearGradient id="shine" x1="0" y1="0" x2="0.7" y2="0.7" gradientUnits="objectBoundingBox">
      <stop offset="0%" stop-color="white" stop-opacity="0.2"/>
      <stop offset="100%" stop-color="white" stop-opacity="0"/>
    </linearGradient>
  </defs>

  <!-- Rounded square background -->
  <rect width="36" height="36" rx="9" fill="url(#bg)"/>

  <!-- Inner shine overlay -->
  <rect width="36" height="36" rx="9" fill="url(#shine)"/>

  <!-- Large sparkle star (Lucide Sparkles — main star) -->
  <path
    d="M17 7
       L19.5 14.5
       L27 17
       L19.5 19.5
       L17 27
       L14.5 19.5
       L7 17
       L14.5 14.5
       Z"
    fill="white"
  />

  <!-- Small sparkle top-right -->
  <path
    d="M26 6
       L27.1 9.4
       L30.5 10.5
       L27.1 11.6
       L26 15
       L24.9 11.6
       L21.5 10.5
       L24.9 9.4
       Z"
    fill="white"
    opacity="0.78"
  />

  <!-- Tiny sparkle bottom-right -->
  <path
    d="M27.5 21
       L28.2 23.3
       L30.5 24
       L28.2 24.7
       L27.5 27
       L26.8 24.7
       L24.5 24
       L26.8 23.3
       Z"
    fill="white"
    opacity="0.55"
  />
</svg>